External Loads File
version=1
nRows=71
nColumns=13
Range=5.000000e-03-10 seconds
endheader
time 	forceRightX 	forceRightY 	forceRightZ 	pointRightX 	pointRightY 	pointRightZ 	forceLeftX 	forceLeftY 	forceLeftZ 	pointLeftX 	pointLeftY 	pointLeftZ 		
5.005000 -96.450161 22.440819 -0.000000 0.324044 0.492926 -0.127825 126.939602 467.574857 -0.000000 0.310879 0.143670 -0.364760
5.010000 -95.291086 27.079119 -0.000000 0.332557 0.493604 -0.127824 120.992431 414.475076 -0.000000 0.302441 0.143960 -0.364600
5.015000 -93.905984 31.661966 -0.000000 0.341081 0.493741 -0.127765 113.920793 362.938094 -0.000000 0.293931 0.144756 -0.364359
5.020000 -92.302912 36.209897 -0.000000 0.349604 0.493396 -0.127825 106.271989 314.233232 -0.000000 0.285289 0.146132 -0.364215
5.025000 -90.536772 40.618567 -0.000000 0.357792 0.492381 -0.127738 98.123087 269.588200 -0.000000 0.276687 0.148059 -0.364037
5.030000 -88.575016 44.979087 -0.000000 0.365949 0.490868 -0.127549 90.172499 229.730326 -0.000000 0.268087 0.150416 -0.363932
5.035000 -86.412772 49.274314 -0.000000 0.373949 0.488685 -0.127409 82.699269 195.198718 -0.000000 0.259573 0.153338 -0.363825
5.040000 -84.047913 53.480899 -0.000000 0.381748 0.485978 -0.127343 75.954326 166.199894 -0.000000 0.251193 0.156704 -0.363783
5.045000 -81.442124 57.636019 -0.000000 0.389354 0.482592 -0.127339 70.247281 142.579786 -0.000000 0.242968 0.160654 -0.363684
5.050000 -78.648531 61.643495 -0.000000 0.396427 0.478689 -0.127043 65.573832 124.075373 -0.000000 0.234947 0.165087 -0.363559
5.055000 -75.596695 65.576081 -0.000000 0.403284 0.474154 -0.127038 62.168501 110.133109 -0.000000 0.227129 0.169985 -0.363507
5.060000 -72.296178 69.388375 -0.000000 0.410086 0.469199 -0.126874 60.003342 100.213768 -0.000000 0.219672 0.175291 -0.363390
5.065000 -68.761453 73.039477 -0.000000 0.416503 0.463543 -0.126851 59.015195 93.726063 -0.000000 0.212570 0.181001 -0.363220
5.070000 -65.007357 76.499451 -0.000000 0.422605 0.457486 -0.126765 59.112885 90.049127 -0.000000 0.205774 0.187057 -0.363102
5.075000 -60.952395 79.825488 -0.000000 0.428296 0.450861 -0.126718 60.283348 88.470432 -0.000000 0.198904 0.193531 -0.362173
5.080000 -56.788447 82.869887 -0.000000 0.433698 0.443841 -0.126478 62.163095 88.481971 -0.000000 0.192898 0.200274 -0.362103
5.085000 -52.480685 85.684003 -0.000000 0.438821 0.436804 -0.126445 64.601867 89.426204 -0.000000 0.187260 0.207432 -0.362057
5.090000 -47.835499 88.387963 -0.000000 0.443682 0.428645 -0.126589 67.567358 90.579590 -0.000000 0.182081 0.214981 -0.361987
5.095000 -43.064915 90.846855 -0.000000 0.448203 0.420408 -0.126552 70.589957 91.620985 -0.000000 0.177396 0.222848 -0.361964
5.100000 -38.118675 93.074610 -0.000000 0.452331 0.411847 -0.126542 73.481217 92.167780 -0.000000 0.173163 0.230957 -0.361931
5.105000 -32.985405 95.040604 -0.000000 0.456005 0.402936 -0.126601 76.043240 92.009268 -0.000000 0.169494 0.239285 -0.361999
5.110000 -27.593261 96.717858 -0.000000 0.459231 0.393785 -0.126565 78.180169 91.005413 -0.000000 0.166329 0.247972 -0.362015
5.115000 -21.949176 98.041206 -0.000000 0.461774 0.384348 -0.126211 79.760583 89.166961 -0.000000 0.163691 0.256795 -0.361962
5.120000 -15.917760 98.969938 -0.000000 0.464203 0.374713 -0.126163 80.826171 86.470300 -0.000000 0.161627 0.265789 -0.361950
5.125000 -9.420983 99.424699 -0.000000 0.466021 0.364874 -0.126016 81.415334 83.012270 -0.000000 0.160058 0.275032 -0.361952
5.130000 -2.442617 99.304723 -0.000000 0.467276 0.354891 -0.125821 81.561232 78.968555 -0.000000 0.159007 0.284255 -0.361956
5.135000 5.181826 98.495655 -0.000000 0.468091 0.344823 -0.125620 81.425528 74.363370 -0.000000 0.158451 0.293730 -0.361991
5.140000 13.421061 96.857623 -0.000000 0.468417 0.334599 -0.125418 81.009510 69.316472 -0.000000 0.158582 0.303182 -0.361969
5.145000 22.212949 94.272981 -0.000000 0.468184 0.324437 -0.125339 80.327720 63.896317 -0.000000 0.159237 0.312712 -0.362143
5.150000 31.426951 90.676777 -0.000000 0.467501 0.314231 -0.125172 79.408354 58.140834 -0.000000 0.160305 0.322264 -0.362123
5.155000 40.777663 86.129835 -0.000000 0.466137 0.303918 -0.125234 78.247795 52.114152 -0.000000 0.161848 0.331800 -0.362122
5.160000 49.750008 80.960607 -0.000000 0.464424 0.293761 -0.125181 76.775261 45.975536 -0.000000 0.163972 0.341372 -0.362186
5.165000 57.919671 75.701252 -0.000000 0.462185 0.282991 -0.125161 75.032293 39.700408 -0.000000 0.166633 0.350922 -0.362309
5.170000 64.140547 71.816436 -0.000000 0.459448 0.273196 -0.124703 72.721845 33.924211 -0.000000 0.169830 0.360237 -0.362351
5.175000 67.995537 70.813645 -0.000000 0.456261 0.263469 -0.124783 69.972853 28.599050 -0.000000 0.173383 0.369640 -0.362370
5.180000 68.808288 75.085201 -0.000000 0.452557 0.253861 -0.124767 66.769251 24.059184 -0.000000 0.177544 0.378627 -0.362425
5.185000 66.304748 87.465023 -0.000000 0.448346 0.244687 -0.124795 63.209718 20.508065 -0.000000 0.182140 0.387520 -0.362527
5.190000 60.831619 111.003876 -0.000000 0.443659 0.235647 -0.124789 59.455482 18.032304 -0.000000 0.187182 0.396362 -0.362502
5.195000 53.268208 148.713984 -0.000000 0.438502 0.226871 -0.124761 55.647241 16.786399 -0.000000 0.192702 0.404904 -0.362585
5.200000 45.350572 202.608157 -0.000000 0.432913 0.218302 -0.124740 51.959018 16.797368 -0.000000 0.198623 0.413148 -0.362851
5.205000 38.747518 272.812686 -0.000000 0.427847 0.210283 -0.125299 48.509049 18.169048 -0.000000 0.204917 0.421205 -0.362794
5.210000 36.930103 355.810185 -0.000000 0.421350 0.202631 -0.125274 45.498232 20.601552 -0.000000 0.211547 0.428821 -0.362892
5.215000 41.520701 444.246793 -0.000000 0.414608 0.195399 -0.125311 42.978791 24.033744 -0.000000 0.218581 0.436254 -0.363097
5.220000 52.226804 528.492755 -0.000000 0.407346 0.188677 -0.125647 40.928766 28.312798 -0.000000 0.225368 0.443303 -0.362693
5.225000 70.343611 600.033452 -0.000000 0.399771 0.182270 -0.125700 39.426763 33.022132 -0.000000 0.233721 0.449952 -0.363679
5.230000 89.846665 654.635151 -0.000000 0.391865 0.176386 -0.125718 38.151681 38.248324 -0.000000 0.241151 0.456226 -0.363388
5.235000 109.986384 690.749084 -0.000000 0.383824 0.171011 -0.125795 37.047641 43.722968 -0.000000 0.248963 0.462125 -0.363312
5.240000 128.842556 709.033435 -0.000000 0.375615 0.166268 -0.125810 35.971150 49.294848 -0.000000 0.257256 0.467277 -0.364017
5.245000 144.236314 711.386882 -0.000000 0.367387 0.161887 -0.125748 34.709924 54.804403 -0.000000 0.265337 0.472197 -0.363934
5.250000 156.971265 699.618832 -0.000000 0.358942 0.158016 -0.125763 33.219759 59.938611 -0.000000 0.273944 0.476436 -0.364040
5.255000 165.078953 676.166686 -0.000000 0.350747 0.154763 -0.125212 31.206264 64.575464 -0.000000 0.282641 0.480225 -0.364248
5.260000 170.595739 642.434887 -0.000000 0.341684 0.151989 -0.125995 28.739852 68.498036 -0.000000 0.291325 0.483416 -0.364520
5.265000 171.063654 600.828102 -0.000000 0.333138 0.149815 -0.125987 25.498331 71.777083 -0.000000 0.300000 0.486101 -0.364496
5.270000 168.251990 552.627254 -0.000000 0.324540 0.148053 -0.125957 21.646023 74.345210 -0.000000 0.308801 0.488119 -0.364560
5.275000 162.252537 499.576575 -0.000000 0.315940 0.146965 -0.126001 17.232521 76.243153 -0.000000 0.317558 0.489701 -0.364679
5.280000 153.503939 443.420416 -0.000000 0.307513 0.146632 -0.126030 12.373787 77.509617 -0.000000 0.326311 0.490572 -0.364786
5.285000 143.111850 385.753914 -0.000000 0.298854 0.146698 -0.126005 7.293316 78.184681 -0.000000 0.334998 0.490860 -0.364880
5.290000 131.889203 328.228531 -0.000000 0.289709 0.147480 -0.125770 2.173082 78.371201 -0.000000 0.343584 0.490607 -0.364947
5.295000 119.948566 272.579984 -0.000000 0.280349 0.148464 -0.125480 -2.957888 78.241436 -0.000000 0.351986 0.489792 -0.365111
5.300000 107.728441 220.078796 -0.000000 0.271219 0.150306 -0.125265 -7.999821 78.019582 -0.000000 0.360285 0.488263 -0.365330
5.305000 95.508097 171.622744 -0.000000 0.262676 0.152793 -0.125302 -12.890338 77.968127 -0.000000 0.368468 0.486158 -0.365486
5.310000 83.758760 127.585875 -0.000000 0.254369 0.155726 -0.125162 -17.452481 78.373608 -0.000000 0.376415 0.483333 -0.365646
5.315000 72.746200 88.168268 -0.000000 0.245967 0.159410 -0.125065 -21.448363 79.530185 -0.000000 0.384326 0.479841 -0.365881
5.320000 62.244732 53.885928 -0.000000 0.237709 0.163589 -0.124977 -24.950969 81.596576 -0.000000 0.391807 0.475737 -0.366068
5.325000 52.378162 25.006625 -0.000000 0.229701 0.168199 -0.124935 -27.954372 84.673420 -0.000000 0.398889 0.470968 -0.366343
5.330000 43.303799 1.550524 -0.000000 0.221933 0.173238 -0.124970 -30.503722 88.845928 -0.000000 0.405801 0.465627 -0.366341
5.335000 35.163766 -16.612203 -0.000000 0.214529 0.178709 -0.125169 -32.905357 94.156353 -0.000000 0.412272 0.459941 -0.366514
5.340000 28.131809 -29.865328 -0.000000 0.208232 0.184721 -0.124550 -35.421554 100.683452 -0.000000 0.418523 0.453511 -0.366709
5.345000 22.238826 -38.800221 -0.000000 0.201700 0.191165 -0.124427 -37.983747 108.591005 -0.000000 0.424414 0.446518 -0.366948
5.350000 17.519002 -44.008644 -0.000000 0.194774 0.198077 -0.124941 -40.661253 117.924263 -0.000000 0.429896 0.439034 -0.367090
5.355000 14.138812 -46.087905 -0.000000 0.189104 0.205371 -0.124798 -43.907324 128.549165 -0.000000 0.435276 0.431133 -0.367142
